<svg xmlns="http://www.w3.org/2000/svg" width="300" height="420" viewBox="0 0 300 420">
  <rect width="300" height="420" fill="#f0f0f0" rx="4"/>
  <rect x="20" y="20" width="260" height="260" fill="#e0e0e0" rx="2"/>
  <g transform="translate(150,150)" fill="#bbb">
    <path d="M-40-20 L40-20 L40 20 L0 40 L-40 20 Z" />
    <rect x="-8" y="-12" width="16" height="30" rx="2" fill="#ccc"/>
    <line x1="-25" y1="5" x2="25" y2="5" stroke="#ddd" stroke-width="2"/>
    <line x1="-25" y1="12" x2="20" y2="12" stroke="#ddd" stroke-width="2"/>
    <line x1="-25" y1="19" x2="15" y2="19" stroke="#ddd" stroke-width="2"/>
  </g>
  <text x="150" y="310" text-anchor="middle" font-family="sans-serif" font-size="14" fill="#999">暂无封面</text>
  <text x="150" y="330" text-anchor="middle" font-family="sans-serif" font-size="11" fill="#bbb">No Cover Available</text>
  <g transform="translate(20,350)" opacity="0.3">
    <rect x="0" y="0" width="260" height="3" fill="#ddd" rx="1.5"/>
    <rect x="0" y="8" width="180" height="3" fill="#ddd" rx="1.5"/>
    <rect x="0" y="16" width="220" height="3" fill="#ddd" rx="1.5"/>
    <rect x="0" y="24" width="140" height="3" fill="#ddd" rx="1.5"/>
    <rect x="0" y="32" width="190" height="3" fill="#ddd" rx="1.5"/>
    <rect x="0" y="40" width="100" height="3" fill="#ddd" rx="1.5"/>
  </g>
</svg>
